<?xml version="1.0" encoding="UTF-8" standalone="no" ?>
<!DOCTYPE svg PUBLIC "-//W3C//DTD SVG 1.1//EN" "http://www.w3.org/Graphics/SVG/1.1/DTD/svg11.dtd">
<svg xmlns="http://www.w3.org/2000/svg" xmlns:xlink="http://www.w3.org/1999/xlink" version="1.1" width="500" height="500" viewBox="0 0 500 500" xml:space="preserve">
<desc>Created with Fabric.js 3.6.3</desc>
<defs>
</defs>
<g transform="matrix(1 0 0 1 250 250)"  >
<rect style="stroke: none; stroke-width: 1; stroke-dasharray: none; stroke-linecap: butt; stroke-dashoffset: 0; stroke-linejoin: miter; stroke-miterlimit: 4; fill: rgb(67,72,189); fill-rule: nonzero; opacity: 1;"  x="-250" y="-250" rx="0" ry="0" width="500" height="500" />
</g>
<g transform="matrix(0.6367392470353388 0 0 0.6367392470353388 430.90072296782637 70.80071686431074)"  >
<g style=""   >
		<g transform="matrix(1.3333333333333335 0 0 1.3333333333333335 0.00013333333333775954 0)"  >
<path style="stroke: none; stroke-width: 1; stroke-dasharray: none; stroke-linecap: butt; stroke-dashoffset: 0; stroke-linejoin: miter; stroke-miterlimit: 4; fill: rgb(255,255,255); fill-rule: nonzero; opacity: 1;"  transform=" translate(-50.0001, -50)" d="m 95.312 50 c 0 -25 -20.312 -45.312 -45.312 -45.312 s -45.312 20.312 -45.312 45.312 s 20.312 45.312 45.312 45.312 c 7.0312 0 13.906 -1.5625 20 -4.6875 c 2.5 1.7188 5.4688 2.6562 8.75 2.6562 c 8.75 0 15.781 -7.0312 15.781 -15.781 c 0 -3.4375 -1.0938 -6.7188 -2.9688 -9.2188 c 2.5 -5.7812 3.75 -11.875 3.75 -18.281 z m -87.5 0 c 0 -23.281 18.906 -42.188 42.188 -42.188 s 42.188 18.906 42.188 42.188 c 0 5.4688 -0.9375 10.625 -2.9688 15.625 c -1.0938 -1.0938 -2.5 -1.875 -3.9062 -2.5 c 1.5625 -4.2188 2.3438 -8.5938 2.3438 -13.125 c 0 -20.781 -16.875 -37.656 -37.656 -37.656 s -37.656 16.875 -37.656 37.656 s 16.875 37.656 37.656 37.656 c 5.1562 0 10 -0.9375 14.688 -2.9688 c 0.78125 1.4062 1.5625 2.6562 2.6562 3.75 c -5.4688 2.5 -11.25 3.75 -17.344 3.75 c -23.281 0 -42.188 -18.906 -42.188 -42.188 z m 55.781 31.719 c -4.2188 1.875 -8.9062 2.8125 -13.594 2.8125 c -19.062 0 -34.531 -15.469 -34.531 -34.531 s 15.469 -34.531 34.531 -34.531 s 34.531 15.469 34.531 34.531 c 0 4.2188 -0.78125 8.2812 -2.1875 12.188 c -1.0938 -0.3125 -2.3438 -0.46875 -3.5938 -0.46875 c -8.75 0 -15.781 7.0312 -15.781 15.781 c 0 1.4062 0.15625 2.8125 0.625 4.2188 z m 15.156 8.4375 c -7.0312 0 -12.656 -5.625 -12.656 -12.656 s 5.625 -12.656 12.656 -12.656 s 12.656 5.625 12.656 12.656 c 0 6.875 -5.625 12.656 -12.656 12.656 z" stroke-linecap="round" />
</g>
		<g transform="matrix(1.3333333333333335 0 0 1.3333333333333335 -0.004387328635857557 5.104033333333334)"  >
<path style="stroke: none; stroke-width: 1; stroke-dasharray: none; stroke-linecap: butt; stroke-dashoffset: 0; stroke-linejoin: miter; stroke-miterlimit: 4; fill: rgb(255,255,255); fill-rule: nonzero; opacity: 1;"  transform=" translate(-49.99670950352311, -53.828025)" d="m 70 43.75 c 0.9375 0 1.5625 -0.625 1.5625 -1.5625 s -0.625 -1.5625 -1.5625 -1.5625 h -6.5625 c -0.3125 -2.6562 -1.7188 -5 -3.5938 -6.875 h 10.156 c 0.9375 0 1.5625 -0.625 1.5625 -1.5625 s -0.625 -1.5625 -1.5625 -1.5625 h -40 c -0.9375 0 -1.5625 0.625 -1.5625 1.5625 s 0.625 1.5625 1.5625 1.5625 h 21.875 c 4.0625 0 7.5 2.9688 8.2812 6.875 h -30.156 c -0.9375 0 -1.5625 0.625 -1.5625 1.5625 s 0.625 1.5625 1.5625 1.5625 h 30.156 c -0.78125 3.9062 -4.2188 6.875 -8.2812 6.875 h -21.875 c -0.625 0 -1.25 0.3125 -1.4062 0.9375 c -0.3125 0.625 -0.15625 1.25 0.3125 1.7188 l 23.281 23.281 c 0.3125 0.3125 0.78125 0.46875 1.0938 0.46875 s 0.78125 -0.15625 1.0938 -0.46875 c 0.625 -0.625 0.625 -1.5625 0 -2.1875 l -20.625 -20.625 h 18.125 c 5.7812 0 10.625 -4.375 11.406 -10 z" stroke-linecap="round" />
</g>
		<g transform="matrix(1.3333333333333335 0 0 1.3333333333333335 38.1254 38.54213333333336)"  >
<path style="stroke: none; stroke-width: 1; stroke-dasharray: none; stroke-linecap: butt; stroke-dashoffset: 0; stroke-linejoin: miter; stroke-miterlimit: 4; fill: rgb(255,255,255); fill-rule: nonzero; opacity: 1;"  transform=" translate(-78.59405, -78.9066)" d="m 85.469 72.969 l -8.5938 8.5938 l -5.1562 -5.1562 c -0.625 -0.625 -1.5625 -0.625 -2.1875 0 s -0.625 1.5625 0 2.1875 l 6.25 6.25 c 0.3125 0.3125 0.78125 0.46875 1.0938 0.46875 s 0.78125 -0.15625 1.0938 -0.46875 l 9.6875 -9.6875 c 0.625 -0.625 0.625 -1.5625 0 -2.1875 s -1.7188 -0.625 -2.1875 0 z" stroke-linecap="round" />
</g>
</g>
</g>
</svg>