<?xml version="1.0" encoding="UTF-8" standalone="no" ?>
<!DOCTYPE svg PUBLIC "-//W3C//DTD SVG 1.1//EN" "http://www.w3.org/Graphics/SVG/1.1/DTD/svg11.dtd">
<svg xmlns="http://www.w3.org/2000/svg" xmlns:xlink="http://www.w3.org/1999/xlink" version="1.1" width="500" height="500" viewBox="0 0 500 500" xml:space="preserve">
<desc>Created with Fabric.js 3.6.3</desc>
<defs>
</defs>
<g transform="matrix(1 0 0 1 250 250)"  >
<rect style="stroke: none; stroke-width: 1; stroke-dasharray: none; stroke-linecap: butt; stroke-dashoffset: 0; stroke-linejoin: miter; stroke-miterlimit: 4; fill: rgb(82,114,255); fill-rule: nonzero; opacity: 1;"  x="-250" y="-250" rx="0" ry="0" width="500" height="500" />
</g>
<g transform="matrix(0.8176854765397916 0 0 0.8176854765397916 250 223.1699353045673)"  >
<g style=""   >
		<g transform="matrix(0.051115861350236796 -0.9986927298816305 0.9986927298816305 0.051115861350236796 -0.006247642608244064 0.003494473616129312)"  >
<circle style="stroke: none; stroke-width: 1; stroke-dasharray: none; stroke-linecap: butt; stroke-dashoffset: 0; stroke-linejoin: miter; stroke-miterlimit: 4; fill: rgb(0,0,0); fill-rule: nonzero; opacity: 1;"  cx="0" cy="0" r="103.17" />
</g>
		<g transform="matrix(1 0 0 1 -0.0049999999999954525 0.09499999999999886)"  >
<circle style="stroke: none; stroke-width: 1; stroke-dasharray: none; stroke-linecap: butt; stroke-dashoffset: 0; stroke-linejoin: miter; stroke-miterlimit: 4; fill: rgb(64,183,211); fill-rule: nonzero; opacity: 1;"  cx="0" cy="0" r="93.42" />
</g>
		<g transform="matrix(1 0 0 1 -0.0049999999999954525 0.09499999999999886)"  >
<circle style="stroke: none; stroke-width: 1; stroke-dasharray: none; stroke-linecap: butt; stroke-dashoffset: 0; stroke-linejoin: miter; stroke-miterlimit: 4; fill: rgb(255,255,255); fill-rule: nonzero; opacity: 1;"  cx="0" cy="0" r="82.29" />
</g>
</g>
</g>
<g transform="matrix(1.1535782953309133 0 0 1.1535782953309133 250 223.16952594668078)"  >
<path style="stroke: none; stroke-width: 0; stroke-dasharray: none; stroke-linecap: butt; stroke-dashoffset: 0; stroke-linejoin: miter; stroke-miterlimit: 4; fill: rgb(0,0,0); fill-rule: nonzero; opacity: 1;"  transform=" translate(-49.99774514078651, -50.00334399999999)" d="m 66.613 34.598 l -15.582 -0.054687 c 0.16016 0.10156 0.32812 0.19141 0.48047 0.29688 c 3.125 2.1172 4.9492 4.9102 5.2461 7.9414 l 9.8242 0.035156 c 0.82812 0.003906 1.5 0.67578 1.4961 1.5078 c -0.003906 0.82812 -0.67578 1.4961 -1.5 1.4961 h -0.003906 l -10.039 -0.035156 c -1.2227 4.8242 -6.4961 8.6602 -13.266 9.7344 l 18.234 14.398 c 0.65234 0.51562 0.76172 1.457 0.24609 2.1094 c -0.29688 0.375 -0.73438 0.57031 -1.1797 0.57031 c -0.32422 0 -0.65234 -0.10547 -0.92969 -0.32422 l -21.238 -16.766 c -0.023438 -0.019531 -0.039063 -0.039062 -0.058594 -0.058593 c -0.039062 -0.035157 -0.078125 -0.074219 -0.11719 -0.11328 c -0.03125 -0.035157 -0.0625 -0.070313 -0.089843 -0.10938 c -0.03125 -0.039062 -0.058594 -0.078124 -0.082031 -0.12109 c -0.023438 -0.042969 -0.046876 -0.082031 -0.070313 -0.125 c -0.019531 -0.042969 -0.039063 -0.089844 -0.058594 -0.13281 c -0.015625 -0.046875 -0.03125 -0.09375 -0.042969 -0.14062 c -0.011718 -0.046875 -0.023437 -0.09375 -0.03125 -0.14062 c -0.007812 -0.050781 -0.011718 -0.10547 -0.015624 -0.15625 c 0 -0.027344 -0.007813 -0.054687 -0.007813 -0.085937 c 0 -0.019531 0.003906 -0.035157 0.003906 -0.050781 c 0 -0.050782 0.007813 -0.10156 0.015625 -0.15234 c 0.007813 -0.050782 0.015625 -0.10156 0.027344 -0.14844 c 0.007812 -0.039062 0.023438 -0.074218 0.035156 -0.11328 c 0.019532 -0.058594 0.039063 -0.11719 0.066406 -0.17188 c 0.015626 -0.027344 0.03125 -0.058594 0.046876 -0.085938 c 0.03125 -0.058593 0.066406 -0.11328 0.10547 -0.16797 c 0.007813 -0.011719 0.015625 -0.023438 0.023438 -0.035156 c 0.015625 -0.019532 0.035156 -0.03125 0.050781 -0.050782 c 0.035156 -0.039062 0.070313 -0.078125 0.11328 -0.11719 c 0.042969 -0.039063 0.085938 -0.074219 0.13281 -0.10938 c 0.023437 -0.019532 0.050781 -0.035156 0.074219 -0.050782 c 0.0625 -0.042968 0.12891 -0.078124 0.19922 -0.10547 c 0.015625 -0.007813 0.027344 -0.011719 0.042969 -0.019532 c 0.078125 -0.03125 0.16016 -0.058593 0.24219 -0.074218 c 0.015626 -0.003906 0.03125 -0.007813 0.046876 -0.011719 c 0.070312 -0.011719 0.14062 -0.023437 0.21484 -0.023437 c 0.023438 0 0.046875 -0.007813 0.070313 -0.007813 h 0.078125 c 6.6641 0 12.426 -3.0586 13.977 -7.0508 l -14.027 -0.050782 c -0.82813 -0.003906 -1.5 -0.67578 -1.4961 -1.5078 c 0.003906 -0.82812 0.67578 -1.4961 1.5 -1.4961 h 0.003906 l 14.371 0.050782 c -0.30859 -2.0156 -1.668 -3.9219 -3.918 -5.4414 c -2.2969 -1.5547 -5.25 -2.5234 -8.457 -2.8164 l -1.9688 -0.007813 c -0.82812 -0.003906 -1.5 -0.67578 -1.4961 -1.5078 c 0 -0.015625 0.003906 -0.03125 0.003906 -0.046875 s -0.003906 -0.03125 -0.003906 -0.050781 c 0.003906 -0.82812 0.67578 -1.4961 1.5 -1.4961 h 0.003906 c 0.70703 0.003906 1.4023 0.042969 2.0938 0.10547 l 25.109 0.089843 c 0.82812 0.003907 1.5 0.67578 1.4961 1.5078 c -0.003906 0.82812 -0.67578 1.4961 -1.5 1.4961 h -0.003906 z m 15.824 15.516 c -0.03125 8.6602 -3.4336 16.793 -9.5859 22.898 c -6.125 6.0781 -14.234 9.4258 -22.848 9.4258 h -0.11719 c -17.887 -0.0625 -32.387 -14.668 -32.324 -32.555 c 0.0625 -17.848 14.605 -32.324 32.438 -32.324 h 0.11719 c 17.887 0.0625 32.387 14.668 32.324 32.555 z m -3.0039 -0.011719 c 0.058594 -16.23 -13.102 -29.484 -29.332 -29.539 h -0.10547 c -7.8164 0 -15.176 3.0352 -20.734 8.5508 c -5.582 5.543 -8.6719 12.922 -8.6992 20.781 c -0.027344 7.8555 3.0078 15.258 8.5547 20.84 c 5.543 5.582 12.922 8.6719 20.781 8.6992 h 0.10547 c 7.8164 0 15.176 -3.0352 20.734 -8.5508 c 5.582 -5.543 8.6719 -12.922 8.6992 -20.781 z m 11.188 0.039063 c -0.039063 10.844 -4.3008 21.027 -12.004 28.68 c -7.668 7.6133 -17.824 11.805 -28.613 11.805 h -0.14844 c -10.844 -0.039062 -21.031 -4.3008 -28.68 -12.004 c -7.6484 -7.7031 -11.84 -17.918 -11.801 -28.762 c 0.078125 -22.352 18.289 -40.48 40.621 -40.48 h 0.14453 c 22.398 0.078125 40.559 18.367 40.48 40.77 z m -3.0039 -0.011719 c 0.074218 -20.746 -16.742 -37.684 -37.488 -37.754 h -0.13672 c -20.684 0 -37.547 16.789 -37.621 37.488 c -0.035156 10.043 3.8477 19.504 10.93 26.637 c 7.0859 7.1328 16.516 11.082 26.559 11.117 c 10.012 0.050781 19.5 -3.8477 26.637 -10.93 c 7.1328 -7.0859 11.082 -16.516 11.117 -26.559 z" stroke-linecap="round" />
</g>
<g transform="matrix(0.5136917301683912 0 0 0.0983373944473024 250 290.89007587528477)"  >
<rect style="stroke: none; stroke-width: 1; stroke-dasharray: none; stroke-linecap: butt; stroke-dashoffset: 0; stroke-linejoin: miter; stroke-miterlimit: 4; fill: rgb(244,250,234); fill-rule: evenodd; opacity: 1;"  x="-393.5" y="-393.5" rx="0" ry="0" width="787" height="787" />
</g>
<g transform="matrix(1 0 0 1 250.6745531431309 292.00095481552427)" style=""  ><path fill="#000000" opacity="1" d="M-171.65 9.24L-176.94 9.24L-176.94-5.76L-184.59-5.76L-184.59-10.46L-163.98-10.46L-163.98-5.76L-171.65-5.76L-171.65 9.24Z"/><path fill="#000000" opacity="1" d="M-155.72 9.24L-160.48 9.24L-160.48 8.06L-151.72-10.46L-146.43-10.46L-137.66 8.06L-137.66 9.24L-142.43 9.24L-144.13 5.41L-154.04 5.41L-155.72 9.24ZM-152.07 1.00L-146.07 1.00L-149.07-5.73L-152.07 1.00Z"/><path fill="#000000" opacity="1" d="M-130.52 8.06L-123.26-0.61L-130.52-9.29L-130.52-10.46L-125.32-10.46L-120.17-4.29L-115.00-10.46L-109.82-10.46L-109.82-9.29L-117.08-0.61L-109.82 8.06L-109.82 9.24L-115.00 9.24L-120.17 3.09L-125.32 9.24L-130.52 9.24L-130.52 8.06Z"/><path fill="#000000" opacity="1" d=""/><path fill="#000000" opacity="1" d="M-90.07-10.46L-84.77-10.46L-84.77-2.82L-74.48-2.82L-74.48-10.46L-69.19-10.46L-69.19 9.24L-74.48 9.24L-74.48 1.89L-84.77 1.89L-84.77 9.24L-90.07 9.24L-90.07-10.46Z"/><path fill="#000000" opacity="1" d="M-41.64-10.46L-41.64-5.76L-55.20-5.76L-55.20-2.82L-44.58-2.82L-44.58 1.89L-55.20 1.89L-55.20 4.53L-41.64 4.53L-41.64 9.24L-60.49 9.24L-60.49-10.46L-41.64-10.46Z"/><path fill="#000000" opacity="1" d="M-14.71 9.24L-33.56 9.24L-33.56-10.46L-28.27-10.46L-28.27 4.53L-14.71 4.53L-14.71 9.24Z"/><path fill="#000000" opacity="1" d="M13.36-3.99L13.36-2.82Q13.36-1.35 12.99-0.07Q12.63 1.21 11.75 2.17Q10.86 3.12 9.35 3.68Q7.84 4.24 5.54 4.24L5.54 4.24L4.72 4.24Q3.13 4.24 1.62 4.21Q0.10 4.18-1.34 3.94L-1.34 3.94L-1.34 9.24L-6.63 9.24L-6.63-10.46Q-4.10-10.76-1.32-10.90Q1.46-11.05 4.13-11.05L4.13-11.05L4.95-11.05Q7.42-11.05 9.04-10.49Q10.66-9.93 11.63-8.98Q12.60-8.02 12.98-6.73Q13.36-5.43 13.36-3.99L13.36-3.99ZM3.90-0.47L3.90-0.47Q5.45-0.47 6.31-0.69Q7.16-0.91 7.56-1.30Q7.95-1.70 8.01-2.23Q8.07-2.76 8.07-3.41L8.07-3.41Q8.07-4.05 8.01-4.60Q7.95-5.14 7.57-5.52Q7.19-5.91 6.39-6.13Q5.60-6.35 4.10-6.35L4.10-6.35Q3.16-6.35 1.65-6.29Q0.13-6.23-1.34-6.08L-1.34-6.08L-1.34-0.73Q0.04-0.55 1.28-0.51Q2.51-0.47 3.90-0.47Z"/><path fill="#000000" opacity="1" d=""/><path fill="#000000" opacity="1" d="M33.41 0.15L33.41-1.38Q33.41-3.38 33.91-5.14Q34.41-6.90 35.66-8.21Q36.91-9.52 39.03-10.29Q41.14-11.05 44.35-11.05L44.35-11.05L45.41-11.05Q48.61-11.05 50.73-10.29Q52.85-9.52 54.10-8.21Q55.35-6.90 55.84-5.14Q56.34-3.38 56.34-1.38L56.34-1.38L56.34 0.15Q56.34 2.15 55.84 3.91Q55.35 5.68 54.10 6.99Q52.85 8.29 50.73 9.06Q48.61 9.82 45.41 9.82L45.41 9.82L44.35 9.82Q41.14 9.82 39.03 9.06Q36.91 8.29 35.66 6.99Q34.41 5.68 33.91 3.91Q33.41 2.15 33.41 0.15L33.41 0.15ZM38.70-0.61L38.70-0.61Q38.70 0.50 38.81 1.55Q38.91 2.59 39.48 3.39Q40.06 4.18 41.31 4.65Q42.56 5.12 44.88 5.12L44.88 5.12Q47.20 5.12 48.45 4.65Q49.70 4.18 50.27 3.39Q50.85 2.59 50.95 1.55Q51.05 0.50 51.05-0.61L51.05-0.61Q51.05-1.73 50.95-2.76Q50.85-3.79 50.27-4.58Q49.70-5.38 48.45-5.85Q47.20-6.32 44.88-6.32L44.88-6.32Q42.56-6.32 41.31-5.85Q40.06-5.38 39.48-4.58Q38.91-3.79 38.81-2.76Q38.70-1.73 38.70-0.61Z"/><path fill="#000000" opacity="1" d="M70.04-10.46L80.36 2.18L80.36-10.46L85.66-10.46L85.66 9.24L80.36 9.24L70.04-3.41L70.04 9.24L64.75 9.24L64.75-10.46L70.04-10.46Z"/><path fill="#000000" opacity="1" d="M113.20 9.24L94.36 9.24L94.36-10.46L99.65-10.46L99.65 4.53L113.20 4.53L113.20 9.24Z"/><path fill="#000000" opacity="1" d="M121.29-10.46L126.58-10.46L126.58 9.24L121.29 9.24L121.29-10.46Z"/><path fill="#000000" opacity="1" d="M140.58-10.46L150.89 2.18L150.89-10.46L156.19-10.46L156.19 9.24L150.89 9.24L140.58-3.41L140.58 9.24L135.28 9.24L135.28-10.46L140.58-10.46Z"/><path fill="#000000" opacity="1" d="M183.73-10.46L183.73-5.76L170.18-5.76L170.18-2.82L180.79-2.82L180.79 1.89L170.18 1.89L170.18 4.53L183.73 4.53L183.73 9.24L164.89 9.24L164.89-10.46L183.73-10.46Z"/></g></svg>